<svg width="20" height="20" viewBox="0 0 20 20" fill="none" xmlns="http://www.w3.org/2000/svg">
<g id="arrow up circle">
<path id="Combo shape" fill-rule="evenodd" clip-rule="evenodd" d="M10 20C15.5228 20 20 15.5228 20 10C20 4.47715 15.5228 0 10 0C4.47715 0 0 4.47715 0 10C0 15.5228 4.47715 20 10 20ZM13.5303 8.46967L10.5303 5.46967C10.2374 5.17678 9.76256 5.17678 9.46967 5.46967L6.46967 8.46967C6.17678 8.76256 6.17678 9.23744 6.46967 9.53033C6.76256 9.82322 7.23744 9.82322 7.53033 9.53033L9.25 7.81066V14C9.25 14.4142 9.58579 14.75 10 14.75C10.4142 14.75 10.75 14.4142 10.75 14V7.81066L12.4697 9.53033C12.7626 9.82322 13.2374 9.82322 13.5303 9.53033C13.8232 9.23744 13.8232 8.76256 13.5303 8.46967Z" fill="#161616"/>
</g>
</svg>
