<svg width="18" height="19" viewBox="0 0 18 19" fill="none" xmlns="http://www.w3.org/2000/svg">
<g id="Huge-icon/interface/solid/check-circle">
<path id="Subtract" fill-rule="evenodd" clip-rule="evenodd" d="M9 17C13.1421 17 16.5 13.6421 16.5 9.5C16.5 5.35786 13.1421 2 9 2C4.85786 2 1.5 5.35786 1.5 9.5C1.5 13.6421 4.85786 17 9 17ZM12.444 7.59537C12.6347 7.35015 12.5906 6.99674 12.3453 6.80602C12.1001 6.61529 11.7467 6.65946 11.556 6.90468L8.55074 10.7686C8.48392 10.8545 8.35822 10.8656 8.27731 10.7928L6.3763 9.08192C6.14539 8.8741 5.78972 8.89282 5.5819 9.12373C5.37408 9.35464 5.3928 9.71031 5.62371 9.91813L7.52472 11.629C8.09107 12.1388 8.97098 12.0607 9.43876 11.4593L12.444 7.59537Z" fill="#161616"/>
</g>
</svg>
