<svg width="21" height="18" viewBox="0 0 21 18" fill="none" xmlns="http://www.w3.org/2000/svg">
<path fill-rule="evenodd" clip-rule="evenodd" d="M4.5 0C2.29086 0 0.5 1.79086 0.5 4V14C0.5 16.2091 2.29086 18 4.5 18H16.5C18.7091 18 20.5 16.2091 20.5 14V4C20.5 1.79086 18.7091 0 16.5 0H4.5ZM4.91603 4.37592C4.57138 4.14616 4.10573 4.23929 3.87597 4.58393C3.6462 4.92858 3.73933 5.39423 4.08398 5.624L7.86518 8.1448C9.4607 9.20848 11.5393 9.20848 13.1348 8.14479L16.916 5.624C17.2607 5.39423 17.3538 4.92858 17.124 4.58393C16.8943 4.23929 16.4286 4.14616 16.084 4.37592L12.3028 6.89672C11.2111 7.6245 9.7889 7.6245 8.69723 6.89672L4.91603 4.37592Z" fill="#161616"/>
</svg>
