<svg width="19" height="22" viewBox="0 0 19 22" fill="none" xmlns="http://www.w3.org/2000/svg">
<g id="notes">
<path id="Subtract" fill-rule="evenodd" clip-rule="evenodd" d="M14.0317 1.5C14.0317 1.08579 13.696 0.75 13.2817 0.75C12.8675 0.75 12.5317 1.08579 12.5317 1.5V3H6.03174V1.5C6.03174 1.08579 5.69595 0.75 5.28174 0.75C4.86752 0.75 4.53174 1.08579 4.53174 1.5V3H4.28174C2.0726 3 0.281738 4.79086 0.281738 7V17.5C0.281738 19.7091 2.0726 21.5 4.28174 21.5H14.2817C16.4909 21.5 18.2817 19.7091 18.2817 17.5V7C18.2817 4.79086 16.4909 3 14.2817 3H14.0317V1.5ZM4.28174 7.75C3.86752 7.75 3.53174 8.08579 3.53174 8.5C3.53174 8.91421 3.86752 9.25 4.28174 9.25H14.2817C14.696 9.25 15.0317 8.91421 15.0317 8.5C15.0317 8.08579 14.696 7.75 14.2817 7.75H4.28174ZM3.53174 12.5C3.53174 12.0858 3.86752 11.75 4.28174 11.75H14.2817C14.696 11.75 15.0317 12.0858 15.0317 12.5C15.0317 12.9142 14.696 13.25 14.2817 13.25H4.28174C3.86752 13.25 3.53174 12.9142 3.53174 12.5ZM4.28174 15.75C3.86752 15.75 3.53174 16.0858 3.53174 16.5C3.53174 16.9142 3.86752 17.25 4.28174 17.25H9.28174C9.69595 17.25 10.0317 16.9142 10.0317 16.5C10.0317 16.0858 9.69595 15.75 9.28174 15.75H4.28174Z" fill="#161616"/>
</g>
</svg>
