<svg width="41" height="40" viewBox="0 0 41 40" fill="none" xmlns="http://www.w3.org/2000/svg">
<g id="Huge-icon/interface/outline/presentation">
<path id="Vector" d="M13.8335 23.3334L15.6372 20.3271C16.7014 18.5535 19.208 18.3849 20.5002 20C21.7923 21.6152 24.2989 21.4466 25.3631 19.673L27.1668 16.6667M20.5002 30V36.6667M7.16683 10H33.8335C35.6744 10 37.1668 8.50766 37.1668 6.66671C37.1668 4.82576 35.6744 3.33337 33.8335 3.33337H7.16683C5.32588 3.33337 3.8335 4.82576 3.8335 6.66671C3.8335 8.50766 5.32588 10 7.16683 10ZM5.50016 10H35.5002V26.6667C35.5002 28.5077 34.0078 30 32.1668 30H8.8335C6.99255 30 5.50016 28.5077 5.50016 26.6667V10Z" stroke="white" stroke-width="1.5" stroke-linecap="round" stroke-linejoin="round"/>
</g>
</svg>
