<svg width="20" height="20" viewBox="0 0 20 20" fill="none" xmlns="http://www.w3.org/2000/svg">
<g id="Huge-icon/interface/solid/star">
<path id="Star 2" d="M8.36051 2.72626C9.03109 1.31358 10.9686 1.31358 11.6392 2.72626L12.7981 5.16773C13.0644 5.72871 13.5791 6.11753 14.1745 6.20749L16.766 6.59899C18.2654 6.82553 18.8641 8.74137 17.7791 9.84099L15.9039 11.7414C15.4731 12.1781 15.2765 12.8072 15.3782 13.4238L15.8208 16.1072C16.077 17.6599 14.5095 18.8439 13.1684 18.1109L10.8505 16.8439C10.318 16.5528 9.68172 16.5528 9.14915 16.8439L6.83131 18.1109C5.49016 18.8439 3.92269 17.6599 4.17883 16.1072L4.62149 13.4238C4.72321 12.8072 4.5266 12.1781 4.09574 11.7414L2.22057 9.84099C1.13556 8.74137 1.73428 6.82553 3.23372 6.59899L5.82515 6.20749C6.42058 6.11753 6.93531 5.72871 7.20159 5.16773L8.36051 2.72626Z" fill="#FFDC00"/>
</g>
</svg>
