<svg width="20" height="20" viewBox="0 0 20 20" fill="none" xmlns="http://www.w3.org/2000/svg">
<g id="student card">
<path id="Combo shape" fill-rule="evenodd" clip-rule="evenodd" d="M10 0C8.89543 0 8 0.895431 8 2V3.5H12V2C12 0.895431 11.1046 0 10 0ZM3 5C1.34315 5 0 6.34315 0 8V17C0 18.6569 1.34315 20 3 20H17C18.6569 20 20 18.6569 20 17V8C20 6.34315 18.6569 5 17 5H3ZM7 12C5.34315 12 4 13.3431 4 15C4 15.5523 4.44772 16 5 16H9C9.55228 16 10 15.5523 10 15C10 13.3431 8.65685 12 7 12ZM7 12C8.10457 12 9 11.1046 9 10C9 8.89543 8.10457 8 7 8C5.89543 8 5 8.89543 5 10C5 11.1046 5.89543 12 7 12ZM16.75 10C16.75 10.4142 16.4142 10.75 16 10.75H13C12.5858 10.75 12.25 10.4142 12.25 10C12.25 9.58579 12.5858 9.25 13 9.25H16C16.4142 9.25 16.75 9.58579 16.75 10ZM16 14.75C16.4142 14.75 16.75 14.4142 16.75 14C16.75 13.5858 16.4142 13.25 16 13.25L13 13.25C12.5858 13.25 12.25 13.5858 12.25 14C12.25 14.4142 12.5858 14.75 13 14.75L16 14.75Z" fill="#161616"/>
</g>
</svg>
