<svg width="48" height="48" viewBox="0 0 48 48" fill="none" xmlns="http://www.w3.org/2000/svg">
<g id="Huge-icon/interface/solid/user-circle">
<path id="Subtract" fill-rule="evenodd" clip-rule="evenodd" d="M44 24C44 30.0267 41.3343 35.4309 37.1177 39.0976C33.6061 42.1513 29.019 44 24 44C18.981 44 14.3939 42.1513 10.8823 39.0976C6.66569 35.4309 4 30.0267 4 24C4 12.9543 12.9543 4 24 4C35.0457 4 44 12.9543 44 24ZM24 38C27.5133 38 30.7243 36.7059 33.1824 34.5684C33.4654 34.3223 33.7384 34.065 34.0007 33.7973C31.8389 30.3007 28.1666 28 24 28C19.8335 28 16.1612 30.3007 13.9994 33.7973C14.2617 34.065 14.5347 34.3223 14.8177 34.5683C17.2758 36.7059 20.4868 38 24 38ZM24 24C27.3137 24 30 21.3137 30 18C30 14.6863 27.3137 12 24 12C20.6863 12 18 14.6863 18 18C18 21.3137 20.6863 24 24 24Z" fill="#161616"/>
</g>
</svg>
