<svg width="21" height="21" viewBox="0 0 21 21" fill="none" xmlns="http://www.w3.org/2000/svg">
<g id="warning">
<path id="Subtract" fill-rule="evenodd" clip-rule="evenodd" d="M20.5 10.5C20.5 16.0228 16.0228 20.5 10.5 20.5C4.97715 20.5 0.5 16.0228 0.5 10.5C0.5 4.97715 4.97715 0.5 10.5 0.5C16.0228 0.5 20.5 4.97715 20.5 10.5ZM9.5 15.5C9.5 14.9477 9.94772 14.5 10.5 14.5C11.0523 14.5 11.5 14.9477 11.5 15.5C11.5 16.0523 11.0523 16.5 10.5 16.5C9.94772 16.5 9.5 16.0523 9.5 15.5ZM9.75 12.5C9.75 12.9142 10.0858 13.25 10.5 13.25C10.9142 13.25 11.25 12.9142 11.25 12.5L11.25 5.5C11.25 5.08579 10.9142 4.75 10.5 4.75C10.0858 4.75 9.75 5.08579 9.75 5.5L9.75 12.5Z" fill="#E64343"/>
</g>
</svg>
