<svg width="78" height="61" viewBox="0 0 78 61" fill="none" xmlns="http://www.w3.org/2000/svg">
<g id="Group">
<g id="Group_2">
<path id="Vector" d="M7.1449 9.5188C1.09289 24.3229 4.20013 38.3859 17.9085 46.8744C19.7871 48.0421 21.7266 49.0371 23.6255 49.9408C28.9159 52.4488 34.2774 54.2968 38.2681 56.5509C40.2888 57.6881 41.944 58.8863 43.325 60.6936L43.6093 60.4905C42.1877 58.6223 40.4817 57.4038 38.4305 56.2564C34.3993 53.9921 29.0479 52.1543 23.7473 49.6667C21.8484 48.7731 19.9191 47.7781 18.0507 46.6307C4.45399 38.2539 1.31629 24.3026 7.31753 9.56957L7.1449 9.5188Z" fill="#FFDC00"/>
<g id="Group_3">
<path id="Vector_2" d="M28.5405 46.1028C29.0787 46.4582 29.9418 47.0166 30.8354 47.7578C33.8005 50.2354 33.8919 51.931 33.5466 53.4033C31.5056 51.8193 28.7944 51.1898 28.5405 46.1028Z" fill="#FFDC00"/>
<path id="Vector_3" d="M23.6563 44.0923C26.1035 45.92 28.8655 48.2249 28.307 51.2202C28.0024 51.0171 27.2713 50.6008 26.4996 50.0322C25.738 49.4636 24.9459 48.7528 24.5296 48.0116C23.9305 46.9455 23.6157 45.5849 23.6563 44.0923Z" fill="#FFDC00"/>
<path id="Vector_4" d="M19.1987 41.7671C21.656 44.0212 23.6564 46.3363 23.169 48.9458C20.7421 47.3516 18.5488 45.5849 19.1987 41.7671Z" fill="#FFDC00"/>
<path id="Vector_5" d="M15.299 38.9646C17.5431 41.7873 18.7414 44.1328 18.2235 46.3057C15.6138 44.3258 14.182 42.0209 15.299 38.9646Z" fill="#FFDC00"/>
<path id="Vector_6" d="M12.1514 35.5632C13.2786 37.7158 14.4971 40.7721 13.7051 43.0465C10.9228 40.2035 10.8314 37.594 12.1514 35.5632Z" fill="#FFDC00"/>
<path id="Vector_7" d="M9.84649 31.5117C10.4558 33.7963 10.9939 36.9237 9.8668 39.0255C8.22179 36.4972 7.70392 33.6237 9.84649 31.5117Z" fill="#FFDC00"/>
<path id="Vector_8" d="M8.41467 26.8918C8.66853 29.1054 8.4756 32.3952 7.03367 34.2635C5.61206 30.273 6.90167 27.8971 8.41467 26.8918Z" fill="#FFDC00"/>
<path id="Vector_9" d="M7.91683 21.9775C7.89652 22.4649 7.80513 23.1757 7.65282 23.9677C7.30757 25.7344 6.63738 27.6941 5.32746 28.9633C4.68774 24.8003 6.2312 22.7188 7.91683 21.9775Z" fill="#FFDC00"/>
<path id="Vector_10" d="M8.32316 16.9209C8.049 18.4643 6.97263 21.6728 4.72852 23.399C4.81991 19.1649 6.67816 17.3677 8.32316 16.9209Z" fill="#FFDC00"/>
<path id="Vector_11" d="M9.52127 11.8745C8.92216 13.9154 7.44977 16.3523 5.16504 17.8144C5.71338 15.1948 6.84051 12.2299 9.52127 11.8745Z" fill="#FFDC00"/>
<path id="Vector_12" d="M11.4205 6.94995C10.6183 8.97054 9.04435 10.9708 6.49561 12.3619C6.96271 11.0825 8.30309 6.99057 11.4205 6.94995Z" fill="#FFDC00"/>
</g>
<path id="Vector_13" d="M11.8772 0.918701C11.207 3.03068 9.47059 7.65063 7.58188 8.78784C7.43971 6.73679 8.53639 3.69067 11.8772 0.918701Z" fill="#FFDC00"/>
<g id="Group_4">
<path id="Vector_14" d="M23.8896 55.9418C24.57 56.1144 25.626 56.3987 26.8141 56.5307C30.6423 56.9673 31.9421 55.759 32.7341 54.5609C32.2467 54.4796 29.373 53.5963 27.5858 54.0227C26.347 54.3172 25.1183 54.9975 23.8896 55.9418Z" fill="#FFDC00"/>
<path id="Vector_15" d="M17.9492 52.7942C18.6296 53.048 19.6755 53.4339 20.8838 53.6674C22.0922 53.9009 23.4427 53.9822 24.7222 53.6775C25.5345 53.4846 26.286 53.0176 26.9663 52.0631C26.7023 52.0225 25.8798 51.7585 24.8948 51.5453C23.9098 51.332 22.7725 51.1594 21.8688 51.2914C20.5995 51.4945 19.3099 52.0225 17.9492 52.7942Z" fill="#FFDC00"/>
<path id="Vector_16" d="M12.1514 48.8342C12.7911 49.1998 13.7964 49.7582 14.9844 50.1745C18.6197 51.4336 20.2546 50.4893 21.27 49.3622C20.742 49.2302 18.0104 48.0422 16.3045 48.0422C15.0149 48.0422 13.6441 48.3468 12.1514 48.8342Z" fill="#FFDC00"/>
<path id="Vector_17" d="M6.94189 43.6761C7.48008 44.1939 8.36351 44.9757 9.46018 45.6357C12.6791 47.5852 14.5678 47.0369 15.827 46.0723C13.4915 45.0671 12.6791 43.4324 6.94189 43.6761Z" fill="#FFDC00"/>
<path id="Vector_18" d="M3.04297 37.3198C4.78952 40.2441 7.81553 43.2699 10.9938 41.9093C8.47556 40.0512 8.60757 38.7515 3.04297 37.3198Z" fill="#FFDC00"/>
<path id="Vector_19" d="M0.890137 30.324C1.09322 30.9941 1.43847 32.04 2.01727 33.1264C3.74352 36.3248 5.59161 36.9239 7.22647 36.7411C5.34791 34.4159 5.94702 33.1873 0.890137 30.324Z" fill="#FFDC00"/>
<path id="Vector_20" d="M0.382324 23.1655C0.615875 26.4452 1.65162 30.2021 4.90102 30.8011C3.74342 28.2119 4.54562 27.1356 0.382324 23.1655Z" fill="#FFDC00"/>
<path id="Vector_21" d="M1.33684 16.2002C0.910357 19.4088 1.10329 23.0844 3.99729 24.5059C3.50988 21.6629 4.38316 20.7288 1.33684 16.2002Z" fill="#FFDC00"/>
<path id="Vector_22" d="M3.44915 9.66113C2.48448 12.6565 2.01738 16.1494 4.42397 18.17C4.54582 15.4894 5.55111 14.5654 3.44915 9.66113Z" fill="#FFDC00"/>
<path id="Vector_23" d="M6.48511 3.59937C5.08381 6.35103 4.09883 9.57992 5.9977 12.027C6.56635 9.38699 7.70364 8.88946 6.48511 3.59937Z" fill="#FFDC00"/>
</g>
</g>
<g id="Group_5">
<path id="Vector_24" d="M70.8028 9.6407C77.4032 25.6633 73.6562 40.6604 54.5254 49.7683C52.6265 50.6719 50.7581 51.4741 48.9912 52.2255C42.2589 55.0787 37.5269 57.0079 34.7954 60.6226L35.0797 60.8257C37.923 57.0485 43.5891 54.8756 49.1131 52.5098C50.8901 51.7482 52.7585 50.9461 54.6574 50.0322C73.6359 40.9447 77.7687 25.9273 70.9552 9.54932L70.8028 9.6407Z" fill="#FFDC00"/>
<g id="Group_6">
<path id="Vector_25" d="M54.0785 56.0635C53.3982 56.2361 52.3523 56.5204 51.1642 56.6524C49.9762 56.7844 48.6663 56.7743 47.4274 56.4087C46.6354 56.1752 45.9144 55.6777 45.2544 54.6826C45.5184 54.642 46.3612 54.3882 47.3564 54.2155C48.3515 54.0429 49.5091 53.9312 50.3925 54.1445C51.6313 54.4389 52.8499 55.1091 54.0785 56.0635Z" fill="#FFDC00"/>
<path id="Vector_26" d="M59.3588 53.2408C57.2873 53.982 54.9417 54.5303 52.7585 54.0125C51.9156 53.8094 51.1134 53.3424 50.4331 52.4184C50.7885 52.3371 51.611 52.0935 52.5554 51.9005C54.241 51.5655 56.282 51.2608 59.3588 53.2408Z" fill="#FFDC00"/>
<path id="Vector_27" d="M64.5577 49.819C61.7247 51.3218 57.7238 52.4184 55.6016 50.0221C56.2007 49.819 57.7645 49.2504 59.0744 49.0169C60.8818 48.6717 62.9432 49.0778 64.5577 49.819Z" fill="#FFDC00"/>
<path id="Vector_28" d="M69.3812 45.534C66.934 47.5343 62.9941 49.2198 60.5977 47.2398C62.2833 46.4478 65.4413 44.5694 69.3812 45.534Z" fill="#FFDC00"/>
<path id="Vector_29" d="M73.3513 40.2542C71.4525 42.7723 67.9289 45.199 65.2075 43.8181C66.6596 42.7723 69.6247 40.2237 73.3513 40.2542Z" fill="#FFDC00"/>
<path id="Vector_30" d="M76.012 34.2329C74.9052 37.0252 72.0213 40.1525 69.1172 39.5941C70.2443 38.2944 72.6611 34.9843 76.012 34.2329Z" fill="#FFDC00"/>
<path id="Vector_31" d="M77.2713 27.9478C76.9464 30.141 75.1186 34.2431 71.9707 34.5883C72.7627 32.9942 74.3265 29.2779 77.2713 27.9478Z" fill="#FFDC00"/>
<path id="Vector_32" d="M77.2812 21.6321C77.4233 24.4244 76.2251 28.0188 73.6357 29.0951C74.0115 27.6025 74.7426 23.3887 77.2812 21.6321Z" fill="#FFDC00"/>
<path id="Vector_33" d="M76.1745 15.55C76.8041 18.0885 76.3878 21.6727 74.1538 23.3989C74.235 22.0586 73.9913 17.6519 76.1745 15.55Z" fill="#FFDC00"/>
<path id="Vector_34" d="M74.1842 9.82349C75.1488 11.9964 75.423 15.4182 73.6155 17.7231C73.3617 15.9462 72.4376 12.0573 74.1842 9.82349Z" fill="#FFDC00"/>
<path id="Vector_35" d="M71.4732 4.49268C72.6511 6.27973 73.4939 9.28524 72.1637 12.2095C71.6458 10.524 70.0618 6.8788 71.4732 4.49268Z" fill="#FFDC00"/>
</g>
<path id="Vector_36" d="M66.1216 1.11157C69.3913 3.24386 70.9145 7.32566 70.5895 8.82841C67.99 6.68597 66.609 2.25894 66.1216 1.11157Z" fill="#FFDC00"/>
<g id="Group_7">
<path id="Vector_37" d="M49.9457 45.991C47.1431 47.8796 44.1881 50.0829 44.9497 53.2915C47.011 51.6872 49.7121 51.078 49.9457 45.991Z" fill="#FFDC00"/>
<path id="Vector_38" d="M55.3173 43.6455C52.4944 45.8692 50.1589 47.8796 50.7377 50.8547C50.9509 50.6922 51.6922 50.2657 52.4944 49.6768C54.2206 48.4178 55.3985 47.0572 55.3173 43.6455Z" fill="#FFDC00"/>
<path id="Vector_39" d="M60.1206 40.8938C57.714 43.4119 55.7745 45.4021 56.4041 48.2654C56.6072 48.103 57.3078 47.6359 58.0288 47.0063C59.6027 45.6661 60.6588 44.1328 60.1206 40.8938Z" fill="#FFDC00"/>
<path id="Vector_40" d="M64.1214 37.5127C62.06 40.8025 60.9329 42.62 61.7452 45.128C63.0958 43.676 65.8172 41.9905 64.1214 37.5127Z" fill="#FFDC00"/>
<path id="Vector_41" d="M67.117 33.3901C65.7969 37.3196 65.3806 39.0458 66.4569 41.1577C66.5178 41.0562 66.6803 40.843 66.8834 40.5688C67.0763 40.2845 67.32 39.9393 67.5333 39.5331C68.569 37.6852 68.7924 35.888 67.117 33.3901Z" fill="#FFDC00"/>
<path id="Vector_42" d="M69.0257 28.5164C68.8429 30.5471 68.325 33.5628 69.6654 35.624C69.7974 35.827 69.9396 36.0301 70.1224 36.2535C70.2239 35.959 71.3815 33.5628 70.9449 31.7452C70.6809 30.6182 70.0005 29.5114 69.0257 28.5164Z" fill="#FFDC00"/>
<path id="Vector_43" d="M69.8179 23.1958C70.153 26.6785 70.417 28.892 72.4377 30.5573C72.4479 30.4354 72.4885 30.1917 72.5494 29.8668C72.5799 29.7043 72.6002 29.5216 72.6205 29.3185C72.6306 29.217 72.6408 29.1154 72.6509 29.0139C72.6611 28.9124 72.6611 28.8007 72.6713 28.689C72.722 27.8056 72.6408 26.7801 72.2955 26.0287C71.8081 24.9727 70.945 24.0081 69.8179 23.1958Z" fill="#FFDC00"/>
<path id="Vector_44" d="M69.4829 17.6721C69.7063 18.4743 70.4273 21.5712 71.788 23.1957C71.9098 23.3481 72.052 23.4902 72.2043 23.6324C72.5191 23.9167 72.8948 24.201 73.372 24.465C73.1689 22.617 73.6361 19.845 69.4829 17.6721Z" fill="#FFDC00"/>
<path id="Vector_45" d="M68.1421 12.1384C69.4012 15.0221 70.437 17.2965 73.0365 18.2916C72.4882 16.4639 72.5186 13.8341 68.1421 12.1384Z" fill="#FFDC00"/>
<path id="Vector_46" d="M65.9487 6.76709C67.614 9.59998 68.9443 11.5901 71.5743 12.2603C70.7416 10.4021 70.3456 7.98554 65.9487 6.76709Z" fill="#FFDC00"/>
</g>
</g>
</g>
</svg>
