<svg width="24" height="25" viewBox="0 0 24 25" fill="none" xmlns="http://www.w3.org/2000/svg">
<g id="Huge-icon/interface/solid/lock 01">
<path id="lock" fill-rule="evenodd" clip-rule="evenodd" d="M8.75 7.25C8.75 5.45507 10.2051 4 12 4C13.7949 4 15.25 5.45507 15.25 7.25V8.5H8.75V7.25ZM7.25 8.5702V7.25C7.25 4.62665 9.37665 2.5 12 2.5C14.6234 2.5 16.75 4.62665 16.75 7.25V8.5702C18.6006 8.92125 20 10.5472 20 12.5V18.5C20 20.7091 18.2091 22.5 16 22.5H8C5.79086 22.5 4 20.7091 4 18.5V12.5C4 10.5472 5.39935 8.92125 7.25 8.5702ZM12 13.75C12.4142 13.75 12.75 14.0858 12.75 14.5V16.5C12.75 16.9142 12.4142 17.25 12 17.25C11.5858 17.25 11.25 16.9142 11.25 16.5V14.5C11.25 14.0858 11.5858 13.75 12 13.75Z" fill="#161616"/>
</g>
</svg>
