<svg width="24" height="25" viewBox="0 0 24 25" fill="none" xmlns="http://www.w3.org/2000/svg">
<g id="Huge-icon/interface/solid/user-circle">
<path id="Subtract" fill-rule="evenodd" clip-rule="evenodd" d="M22 12.5C22 15.5134 20.6672 18.2154 18.5588 20.0488C16.8031 21.5756 14.5095 22.5 12 22.5C9.49052 22.5 7.19694 21.5756 5.44117 20.0488C3.33285 18.2154 2 15.5134 2 12.5C2 6.97715 6.47715 2.5 12 2.5C17.5228 2.5 22 6.97715 22 12.5ZM12 19.5C13.7567 19.5 15.3622 18.8529 16.5912 17.7842C16.7327 17.6611 16.8692 17.5325 17.0003 17.3986C15.9194 15.6503 14.0833 14.5 12 14.5C9.91675 14.5 8.0806 15.6503 6.99969 17.3986C7.13086 17.5325 7.26735 17.6611 7.40884 17.7842C8.63788 18.8529 10.2434 19.5 12 19.5ZM12 12.5C13.6569 12.5 15 11.1569 15 9.5C15 7.84315 13.6569 6.5 12 6.5C10.3431 6.5 9 7.84315 9 9.5C9 11.1569 10.3431 12.5 12 12.5Z" fill="#161616"/>
</g>
</svg>
